<svg width="40" height="40" viewBox="0 0 40 40" fill="none" xmlns="http://www.w3.org/2000/svg"><path d="M20 39c13.66 0 19-5.34 19-19S33.66 1 20 1 1 6.34 1 20s5.34 19 19 19z" fill="url(#a)"/><path d="M18.232 11.29a3 3 0 0 1 3.536 0l.066.048a3 3 0 0 0 1.774.576h.082a3 3 0 0 1 2.86 2.078l.025.078a3 3 0 0 0 1.097 1.509l.066.048a3 3 0 0 1 1.092 3.363l-.025.078a3 3 0 0 0 0 1.864l.025.078a3 3 0 0 1-1.092 3.363l-.066.048a3 3 0 0 0-1.097 1.509l-.025.078a3 3 0 0 1-2.86 2.078h-.082a3 3 0 0 0-1.774.576l-.066.048a3 3 0 0 1-3.536 0l-.066-.048a3 3 0 0 0-1.774-.576h-.081a3 3 0 0 1-2.861-2.078l-.025-.078a3 3 0 0 0-1.096-1.509l-.067-.048a3 3 0 0 1-1.092-3.363l.025-.078a3 3 0 0 0 0-1.864l-.025-.078a3 3 0 0 1 1.092-3.363l.067-.048a3 3 0 0 0 1.096-1.509l.025-.078a3 3 0 0 1 2.86-2.078h.082a3 3 0 0 0 1.774-.576l.066-.048z" fill="url(#b)" stroke="url(#c)" stroke-linecap="round" stroke-linejoin="round"/><path d="m16.5 20 2.5 2.5 5-5" stroke="#09DFCE" stroke-width="2" stroke-linecap="round" stroke-linejoin="round"/><defs><linearGradient id="a" x1="20" y1="1" x2="20" y2="39" gradientUnits="userSpaceOnUse"><stop stop-color="#3FF1B3"/><stop offset="1" stop-color="#00DDD2"/></linearGradient><linearGradient id="b" x1="12.867" y1="8.286" x2="21.962" y2="19.891" gradientUnits="userSpaceOnUse"><stop stop-color="#fff" stop-opacity=".8"/><stop offset="1" stop-color="#fff"/></linearGradient><linearGradient id="c" x1="20" y1="10" x2="20" y2="30" gradientUnits="userSpaceOnUse"><stop stop-color="#fff"/><stop offset="1" stop-color="#fff"/></linearGradient></defs></svg>